<?xml version="1.0" encoding="utf-8"?>
<!-- Generator: Adobe Illustrator 14.0.0, SVG Export Plug-In . SVG Version: 6.00 Build 43363)  -->
<!DOCTYPE svg PUBLIC "-//W3C//DTD SVG 1.1//EN" "http://www.w3.org/Graphics/SVG/1.1/DTD/svg11.dtd">
<svg version="1.1" id="Layer_1" xmlns="http://www.w3.org/2000/svg" xmlns:xlink="http://www.w3.org/1999/xlink" x="0px" y="0px"
	 width="382.5px" height="256.667px" viewBox="-46 5.5 382.5 256.667" enable-background="new -46 5.5 382.5 256.667"
	 xml:space="preserve">
<g>
	<path fill="#155F22" d="M333.631,241.777l0.007-0.008l-0.165-0.166c-0.065-0.068-0.132-0.135-0.199-0.201l-55.535-55.935H13.442
		l-55.255,55.719c-1.73,1.556-2.826,3.806-2.826,6.317v4.992c0,4.697,3.808,8.504,8.504,8.504h363.493
		c4.695,0,8.504-3.807,8.504-8.504v-4.992C335.861,245.295,335.011,243.289,333.631,241.777z"/>
	<path fill="#155F22" d="M15.865,175.5h259.493c4.695,0,8.504-3.807,8.504-8.504V16.504c0-4.697-3.809-8.504-8.504-8.504H15.865
		c-4.696,0-8.504,3.807-8.504,8.504v150.492C7.361,171.693,11.169,175.5,15.865,175.5z M26.469,33.661
		c0-4.048,3.282-7.328,7.328-7.328h223.624c4.047,0,7.33,3.28,7.33,7.328v115.972c0,4.048-3.283,7.328-7.33,7.328H33.798
		c-4.046,0-7.328-3.28-7.328-7.328V33.661z"/>
	<path fill="#155F22" d="M109.422,86.458l9.763,2.54v10.18v4.251v0.766c0,2.079,1.687,3.764,3.764,3.764
		c2.078,0,3.764-1.685,3.764-3.764v-0.766v-1.743c0-2.079,1.686-3.764,3.764-3.764c2.077,0,3.764,1.685,3.764,3.764v1.743v0.766
		c0,2.079,1.686,3.764,3.763,3.764c2.078,0,3.764-1.685,3.764-3.764v-0.766v-1.743c0-2.079,1.686-3.764,3.764-3.764
		s3.764,1.685,3.764,3.764v1.743v0.766c0,2.079,1.686,3.764,3.764,3.764c2.077,0,3.763-1.685,3.763-3.764v-0.766v-1.743
		c0-2.079,1.687-3.764,3.764-3.764c2.078,0,3.764,1.685,3.764,3.764v1.743v0.766c0,2.079,1.686,3.764,3.764,3.764
		c2.077,0,3.764-1.685,3.764-3.764v-0.766v-4.251V88.964l9.452-2.459c3.407-0.527,6.02-3.465,6.02-7.02L184,41.021
		c0-3.928-3.185-7.111-7.111-7.111H114.17c-3.927,0-7.111,3.184-7.111,7.111l-3.346,38.464
		C103.713,82.933,106.166,85.806,109.422,86.458z M157.447,62.623h8.781c3.694,0,6.69,2.995,6.69,6.69c0,3.695-2.996,6.69-6.69,6.69
		h-8.781c-3.695,0-6.69-2.996-6.69-6.69C150.757,65.618,153.752,62.623,157.447,62.623z M124.83,62.623h8.781
		c3.695,0,6.691,2.995,6.691,6.69c0,3.695-2.996,6.69-6.691,6.69h-8.781c-3.694,0-6.69-2.996-6.69-6.69
		C118.139,65.618,121.135,62.623,124.83,62.623z"/>
	<path fill="#155F22" d="M97.695,121.391c3.183,1.042,6.565-0.289,8.252-3.018l26.819,8.786l-26.819,8.784
		c-1.687-2.728-5.069-4.059-8.252-3.017c-3.73,1.222-5.764,5.238-4.541,8.97l1.431,4.37c1.222,3.731,5.237,5.765,8.968,4.543
		c3.183-1.043,5.123-4.118,4.869-7.314l37.107-12.155l37.108,12.155c-0.255,3.196,1.685,6.271,4.867,7.314
		c3.73,1.222,7.747-0.812,8.97-4.543l1.432-4.37c1.222-3.731-0.813-7.748-4.544-8.97c-3.183-1.042-6.565,0.289-8.251,3.017
		l-26.82-8.784l26.82-8.786c1.686,2.729,5.068,4.06,8.251,3.018c3.731-1.222,5.766-5.238,4.544-8.968l-1.432-4.372
		c-1.223-3.731-5.239-5.765-8.97-4.542c-3.183,1.042-5.122,4.117-4.867,7.315l-37.108,12.155l-37.107-12.155
		c0.254-3.198-1.687-6.272-4.869-7.315c-3.73-1.223-7.746,0.811-8.968,4.542l-1.431,4.372
		C91.93,116.153,93.965,120.169,97.695,121.391z"/>
</g>
</svg>
